HIERARCHY
ROOT Hips
{
	OFFSET 0.000000 0.000000 0.000000
	CHANNELS 6 Xposition Yposition Zposition Xrotation Yrotation Zrotation
	JOINT LeftUpLeg_virtual
	{
		OFFSET 0.000000 0.000000 0.000000
		CHANNELS 3 Xrotation Yrotation Zrotation
		JOINT LeftUpLeg
		{
			OFFSET 15.427100 -6.655098 0.678600
			CHANNELS 3 Xrotation Yrotation Zrotation
			JOINT LeftLeg
			{
				OFFSET 4.081073 -39.591068 13.024000
				CHANNELS 3 Xrotation Yrotation Zrotation
				JOINT LeftFoot
				{
					OFFSET -4.081074 -37.707932 -15.979700
					CHANNELS 3 Xrotation Yrotation Zrotation
					JOINT LeftToeBase
					{
						OFFSET 5.346399 -15.068900 20.645000
						CHANNELS 3 Xrotation Yrotation Zrotation
						JOINT LeftToe_End
						{
							OFFSET 2.754700 0.931300 11.300900
							CHANNELS 3 Xrotation Yrotation Zrotation
							End Site
							{
								OFFSET 0 0 0
							}
						}
					}
				}
			}
		}
	}
	JOINT RightUpLeg_virtual
	{
		OFFSET 0.000000 0.000000 0.000000
		CHANNELS 3 Xrotation Yrotation Zrotation
		JOINT RightUpLeg
		{
			OFFSET -15.569500 -6.655098 0.678600
			CHANNELS 3 Xrotation Yrotation Zrotation
			JOINT RightLeg
			{
				OFFSET -4.081825 -39.591045 13.023800
				CHANNELS 3 Xrotation Yrotation Zrotation
				JOINT RightFoot
				{
					OFFSET 4.081824 -37.707954 -15.979600
					CHANNELS 3 Xrotation Yrotation Zrotation
					JOINT RightToeBase
					{
						OFFSET -5.346400 -15.068900 20.645000
						CHANNELS 3 Xrotation Yrotation Zrotation
						JOINT RightToe_End
						{
							OFFSET -2.754700 0.931300 11.300900
							CHANNELS 3 Xrotation Yrotation Zrotation
							End Site
							{
								OFFSET 0 0 0
							}
						}
					}
				}
			}
		}
	}
	JOINT Spine_virtual
	{
		OFFSET 0.000000 0.000000 0.000000
		CHANNELS 3 Xrotation Yrotation Zrotation
		JOINT Spine
		{
			OFFSET -0.279200 12.230698 -2.892100
			CHANNELS 3 Xrotation Yrotation Zrotation
			JOINT Spine1
			{
				OFFSET -0.232667 10.192268 -1.242267
				CHANNELS 3 Xrotation Yrotation Zrotation
				JOINT Spine1_split
				{
					OFFSET -0.232667 10.192268 -1.242267
					CHANNELS 3 Xrotation Yrotation Zrotation
					JOINT Spine2
					{
						OFFSET -0.232667 10.192268 -1.242267
						CHANNELS 3 Xrotation Yrotation Zrotation
						JOINT Neck_virtual
						{
							OFFSET 0.000000 0.000000 0.000000
							CHANNELS 3 Xrotation Yrotation Zrotation
							JOINT Neck
							{
								OFFSET -0.418800 17.814194 8.416900
								CHANNELS 3 Xrotation Yrotation Zrotation
								JOINT Head
								{
									OFFSET 0.000000 7.031097 3.806800
									CHANNELS 3 Xrotation Yrotation Zrotation
									JOINT HeadTop_End
									{
										OFFSET 0.000000 24.646606 12.978600
										CHANNELS 3 Xrotation Yrotation Zrotation
										End Site
										{
											OFFSET 0 0 0
										}
									}
								}
							}
						}
						JOINT LeftShoulder_virtual
						{
							OFFSET 0.000000 0.000000 0.000000
							CHANNELS 3 Xrotation Yrotation Zrotation
							JOINT LeftShoulder
							{
								OFFSET 8.476499 7.247704 -3.868750
								CHANNELS 3 Xrotation Yrotation Zrotation
								JOINT LeftShoulder_split
								{
									OFFSET 8.476499 7.247704 -3.868750
									CHANNELS 3 Xrotation Yrotation Zrotation
									JOINT LeftArm
									{
										OFFSET 9.308998 -2.777710 0.208600
										CHANNELS 3 Xrotation Yrotation Zrotation
										JOINT LeftForeArm
										{
											OFFSET 29.972298 0.000000 0.000000
											CHANNELS 3 Xrotation Yrotation Zrotation
											JOINT LeftHand
											{
												OFFSET 26.026505 0.000000 0.000000
												CHANNELS 3 Xrotation Yrotation Zrotation
												End Site
												{
													OFFSET 0 0 0
												}
											}
										}
									}
								}
							}
						}
						JOINT RightShoulder_virtual
						{
							OFFSET 0.000000 0.000000 0.000000
							CHANNELS 3 Xrotation Yrotation Zrotation
							JOINT RightShoulder
							{
								OFFSET -7.570500 7.247704 -3.868750
								CHANNELS 3 Xrotation Yrotation Zrotation
								JOINT RightShoulder_split
								{
									OFFSET -7.570500 7.247704 -3.868750
									CHANNELS 3 Xrotation Yrotation Zrotation
									JOINT RightArm
									{
										OFFSET -9.308998 -2.777710 0.208500
										CHANNELS 3 Xrotation Yrotation Zrotation
										JOINT RightForeArm
										{
											OFFSET -29.972300 0.000000 0.000000
											CHANNELS 3 Xrotation Yrotation Zrotation
											JOINT RightHand
											{
												OFFSET -26.026505 0.000000 0.000000
												CHANNELS 3 Xrotation Yrotation Zrotation
												End Site
												{
													OFFSET 0 0 0
												}
											}
										}
									}
								}
							}
						}
					}
				}
			}
		}
	}
}
MOTION
Frames: 4
Frame Time: 0.03333333
9.263752 94.528229 -4.712643 0.000000 0.000000 0.000000 -0.987079 -21.628337 -1.497145 -5.619061 5.882512 0.354434 13.459356 9.399752 2.044866 -8.197961 19.596899 -2.597932 -1.819245 0.213871 -1.864315 0.000000 0.000000 0.000000 -0.266877 -21.316279 -1.546814 -10.044188 -8.147010 -10.702632 11.158200 3.715140 1.891614 -6.069953 -3.572543 7.263373 -6.714352 0.315885 0.310971 0.000000 0.000000 0.000000 -0.577760 -21.941344 -2.273044 3.973536 1.465731 -1.397337 0.533674 -0.011401 0.131572 1.089967 0.218667 0.256428 0.000000 0.000000 0.000000 1.279837 0.414724 -0.292082 1.099900 -1.019746 2.217530 13.241620 10.316746 5.570235 0.000000 0.000000 0.000000 0.828195 0.444924 -0.175834 2.237046 -2.937773 -11.708547 -0.533929 -1.083831 -1.884209 -6.779854 -19.061989 -55.998341 0.418790 -14.194612 0.412590 0.000000 0.000000 0.000000 0.915316 0.465825 -0.098348 2.388365 -2.660768 16.615458 -0.678877 2.935452 -3.045031 7.193962 2.300723 65.688654 1.834770 20.198737 1.461167 0.000000 0.000000 0.000000 
9.812445 94.522278 -4.419281 0.000000 0.000000 0.000000 -0.960364 -22.497320 -1.681469 -5.592099 6.058162 0.135714 13.333788 9.417122 2.024106 -8.299640 20.352919 -2.345145 -1.867551 0.221614 -1.800408 0.000000 0.000000 0.000000 -0.269628 -22.114243 -1.736555 -10.180039 -8.227492 -10.593454 11.092931 3.929511 1.873765 -6.297863 -3.453550 7.202744 -6.557707 0.303934 0.311863 0.000000 0.000000 0.000000 -0.562857 -22.744976 -2.475875 3.734183 0.995609 -1.520466 0.485665 -0.099175 0.110999 1.151434 0.230684 0.247053 0.000000 0.000000 0.000000 1.252647 0.320088 -0.315668 1.092026 -1.113780 2.310723 13.519255 11.249335 5.886643 0.000000 0.000000 0.000000 0.784405 0.363049 -0.195371 2.188793 -3.170761 -11.607791 -0.637022 -1.014669 -1.892498 -7.086299 -20.703391 -56.268837 0.420209 -14.728336 0.423567 0.000000 0.000000 0.000000 0.881756 0.380979 -0.144657 2.448448 -3.219195 16.965220 -0.704699 2.845566 -3.106240 6.780261 2.954556 66.212175 1.850462 20.711799 1.467790 0.000000 0.000000 0.000000 
10.326444 94.529839 -4.133003 0.000000 0.000000 0.000000 -0.909445 -23.356517 -1.865824 -5.593795 6.257304 -0.027310 13.195031 9.420878 2.027489 -8.334489 21.055323 -2.112967 -1.924590 0.228265 -1.733766 0.000000 0.000000 0.000000 -0.256828 -22.893677 -1.931151 -10.314031 -8.328093 -10.460359 10.958360 4.040754 1.843071 -6.438802 -3.353787 7.080231 -6.331980 0.295030 0.312540 0.000000 0.000000 0.000000 -0.522561 -23.528683 -2.673983 3.516855 0.499783 -1.674319 0.435993 -0.180882 0.073802 1.216783 0.255284 0.241744 0.000000 0.000000 0.000000 1.221726 0.227673 -0.349811 1.095124 -1.204946 2.403578 13.798802 12.108996 6.290023 0.000000 0.000000 0.000000 0.744642 0.287942 -0.224192 2.127033 -3.455918 -11.435950 -0.727243 -0.946842 -1.888464 -7.250442 -22.441230 -56.554475 0.445808 -15.623696 0.448447 0.000000 0.000000 0.000000 0.862667 0.300011 -0.208391 2.509640 -3.807794 17.352799 -0.738433 2.723016 -3.124741 6.235960 3.705622 66.663500 1.870099 21.241714 1.472634 0.000000 0.000000 0.000000 
10.795618 94.564285 -3.862793 0.000000 0.000000 0.000000 -0.813360 -24.146587 -2.039763 -5.640844 6.457082 -0.139732 13.029070 9.407583 2.057781 -8.271261 21.679444 -1.903429 -1.993047 0.234680 -1.672801 0.000000 0.000000 0.000000 -0.189175 -23.622768 -2.112959 -10.434521 -8.403147 -10.327340 10.714801 4.062090 1.792343 -6.400911 -3.267493 7.005630 -6.190225 0.288237 0.312774 0.000000 0.000000 0.000000 -0.431324 -24.253624 -2.852974 3.307374 -0.018361 -1.876996 0.380689 -0.259610 0.015570 1.243849 0.284819 0.258259 0.000000 0.000000 0.000000 1.179792 0.135183 -0.400006 1.105003 -1.296045 2.521967 14.093120 12.882712 6.778151 0.000000 0.000000 0.000000 0.704871 0.218219 -0.266424 2.052806 -3.780565 -11.178329 -0.800747 -0.874378 -1.867431 -7.253167 -24.242402 -56.883284 0.507174 -16.940532 0.487210 0.000000 0.000000 0.000000 0.852398 0.220746 -0.293897 2.574260 -4.427795 17.761641 -0.775565 2.568899 -3.108122 5.632065 4.517964 67.027836 1.890407 21.756381 1.485138 0.000000 0.000000 0.000000 
